<svg width="52" height="52" viewBox="0 0 52 52" fill="none" xmlns="http://www.w3.org/2000/svg">
<g clip-path="url(#clip0_569_70)">
<path d="M26.004 52.008C40.3656 52.008 52.008 40.3656 52.008 26.004C52.008 11.6424 40.3656 0 26.004 0C11.6424 0 0 11.6424 0 26.004C0 40.3656 11.6424 52.008 26.004 52.008Z" fill="#D0BC9C"/>
<path d="M36.3771 16.0641H15.6236C13.7479 16.0641 12.2168 17.5951 12.2168 19.4709V32.537C12.2168 34.4128 13.7479 35.9438 15.6236 35.9438H36.3771C38.2529 35.9438 39.7839 34.4128 39.7839 32.537V19.4709C39.7839 17.5951 38.2529 16.0641 36.3771 16.0641ZM38.4372 19.4709V32.537C38.4372 32.8416 38.3731 33.1302 38.2529 33.3867L29.82 26.004L38.2529 18.6212C38.3731 18.8777 38.4372 19.1663 38.4372 19.4709ZM36.3771 17.4108C36.6897 17.4108 36.9783 17.4829 37.2428 17.6032L26.6457 26.8857C26.2769 27.2064 25.7238 27.2064 25.3551 26.8857L14.7579 17.6032C15.0224 17.4829 15.311 17.4108 15.6236 17.4108H36.3771ZM13.7559 33.3867C13.6356 33.1302 13.5715 32.8416 13.5715 32.537V19.4709C13.5715 19.1663 13.6356 18.8777 13.7559 18.6212L22.1887 26.004L13.7559 33.3867ZM15.6236 34.5891C15.311 34.5891 15.0224 34.517 14.7579 34.3968L23.2629 26.9499L24.4092 27.9599C24.8581 28.3527 25.4272 28.5531 25.9964 28.5531C26.5655 28.5531 27.1266 28.3527 27.5835 27.9599L28.7298 26.9499L37.2348 34.3968C36.9703 34.517 36.6817 34.5891 36.3691 34.5891H15.6156H15.6236Z" fill="white"/>
</g>
<defs>
<clipPath id="clip0_569_70">
<rect width="52" height="52" fill="white"/>
</clipPath>
</defs>
</svg>
