<svg width="52" height="52" viewBox="0 0 52 52" fill="none" xmlns="http://www.w3.org/2000/svg">
<g clip-path="url(#clip0_567_35)">
<path d="M26.004 52.008C40.3656 52.008 52.008 40.3656 52.008 26.004C52.008 11.6424 40.3656 0 26.004 0C11.6424 0 0 11.6424 0 26.004C0 40.3656 11.6424 52.008 26.004 52.008Z" fill="#D0BC9C"/>
<path d="M26.0044 15.9599C29.2749 15.9599 29.6597 15.9759 30.9502 16.032C32.1446 16.0882 32.7939 16.2886 33.2268 16.4569C33.7959 16.6813 34.2048 16.9459 34.6376 17.3707C35.0625 17.7956 35.335 18.2044 35.5514 18.7815C35.7198 19.2144 35.9202 19.8637 35.9763 21.0581C36.0324 22.3487 36.0484 22.7334 36.0484 26.004C36.0484 29.2745 36.0324 29.6593 35.9763 30.9499C35.9202 32.1443 35.7198 32.7936 35.5514 33.2264C35.327 33.7956 35.0625 34.2044 34.6376 34.6373C34.2128 35.0701 33.804 35.3347 33.2268 35.5511C32.7939 35.7194 32.1446 35.9198 30.9502 35.9759C29.6597 36.032 29.2749 36.0481 26.0044 36.0481C22.7338 36.0481 22.349 36.032 21.0585 35.9759C19.8641 35.9198 19.2148 35.7194 18.7819 35.5511C18.2128 35.3266 17.804 35.0621 17.3711 34.6373C16.9462 34.2124 16.6737 33.8036 16.4573 33.2264C16.2889 32.7936 16.0885 32.1443 16.0324 30.9499C15.9763 29.6593 15.9603 29.2745 15.9603 26.004C15.9603 22.7334 15.9763 22.3487 16.0324 21.0581C16.0885 19.8637 16.2889 19.2144 16.4573 18.7815C16.6817 18.2124 16.9462 17.8036 17.3711 17.3707C17.7959 16.9459 18.2048 16.6733 18.7819 16.4569C19.2148 16.2886 19.8641 16.0882 21.0585 16.032C22.349 15.9759 22.7338 15.9599 26.0044 15.9599ZM26.0044 13.7555C22.6777 13.7555 22.2609 13.7715 20.9543 13.8276C19.6476 13.8837 18.7579 14.0922 17.9803 14.3968C17.1787 14.7094 16.4893 15.1262 15.808 15.8076C15.1266 16.489 14.7098 17.1703 14.3971 17.9799C14.0925 18.7575 13.8841 19.6473 13.828 20.9539C13.7719 22.2605 13.7559 22.6773 13.7559 26.004C13.7559 29.3306 13.7719 29.7475 13.828 31.0541C13.8841 32.3607 14.0925 33.2505 14.3971 34.028C14.7098 34.8296 15.1266 35.519 15.808 36.2004C16.4893 36.8817 17.1707 37.2986 17.9803 37.6112C18.7579 37.9158 19.6476 38.1242 20.9543 38.1803C22.2609 38.2365 22.6777 38.2525 26.0044 38.2525C29.331 38.2525 29.7478 38.2365 31.0545 38.1803C32.3611 38.1242 33.2509 37.9158 34.0284 37.6112C34.838 37.2986 35.5194 36.8817 36.2007 36.2004C36.8821 35.519 37.2989 34.8377 37.6116 34.028C37.9162 33.2505 38.1246 32.3607 38.1807 31.0541C38.2368 29.7475 38.2529 29.3306 38.2529 26.004C38.2529 22.6773 38.2368 22.2605 38.1807 20.9539C38.1246 19.6473 37.9162 18.7575 37.6116 17.9799C37.2989 17.1783 36.8821 16.489 36.2007 15.8076C35.5194 15.1262 34.838 14.7094 34.0284 14.3968C33.2509 14.0922 32.3611 13.8837 31.0545 13.8276C29.7478 13.7715 29.331 13.7555 26.0044 13.7555Z" fill="white"/>
<path d="M26.0035 19.7114C22.5326 19.7114 19.7109 22.5251 19.7109 26.004C19.7109 29.483 22.5246 32.2966 26.0035 32.2966C29.4825 32.2966 32.2961 29.483 32.2961 26.004C32.2961 22.5251 29.4825 19.7114 26.0035 19.7114ZM26.0035 30.0842C23.751 30.0842 21.9234 28.2565 21.9234 26.004C21.9234 23.7515 23.751 21.9239 26.0035 21.9239C28.256 21.9239 30.0837 23.7515 30.0837 26.004C30.0837 28.2565 28.256 30.0842 26.0035 30.0842Z" fill="white"/>
<path d="M34.012 19.4629C34.012 20.2725 33.3547 20.9298 32.5451 20.9298C31.7354 20.9298 31.0781 20.2725 31.0781 19.4629C31.0781 18.6533 31.7354 17.996 32.5451 17.996C33.3547 17.996 34.012 18.6533 34.012 19.4629Z" fill="white"/>
</g>
<defs>
<clipPath id="clip0_567_35">
<rect width="52" height="52" fill="white"/>
</clipPath>
</defs>
</svg>
